<svg id="visual" viewBox="0 0 900 600" width="900" height="600" xmlns="http://www.w3.org/2000/svg" xmlns:xlink="http://www.w3.org/1999/xlink" version="1.1"><path d="M0 169L13.7 173C27.3 177 54.7 185 82 199C109.3 213 136.7 233 163.8 221C191 209 218 165 245.2 166C272.3 167 299.7 213 327 237C354.3 261 381.7 263 409 251C436.3 239 463.7 213 491 215C518.3 217 545.7 247 573 255C600.3 263 627.7 249 654.8 246C682 243 709 251 736.2 254C763.3 257 790.7 255 818 248C845.3 241 872.7 229 886.3 223L900 217L900 0L886.3 0C872.7 0 845.3 0 818 0C790.7 0 763.3 0 736.2 0C709 0 682 0 654.8 0C627.7 0 600.3 0 573 0C545.7 0 518.3 0 491 0C463.7 0 436.3 0 409 0C381.7 0 354.3 0 327 0C299.7 0 272.3 0 245.2 0C218 0 191 0 163.8 0C136.7 0 109.3 0 82 0C54.7 0 27.3 0 13.7 0L0 0Z" fill="#1f2029"></path><path d="M0 313L13.7 319C27.3 325 54.7 337 82 344C109.3 351 136.7 353 163.8 351C191 349 218 343 245.2 350C272.3 357 299.7 377 327 390C354.3 403 381.7 409 409 400C436.3 391 463.7 367 491 360C518.3 353 545.7 363 573 365C600.3 367 627.7 361 654.8 358C682 355 709 355 736.2 359C763.3 363 790.7 371 818 365C845.3 359 872.7 339 886.3 329L900 319L900 215L886.3 221C872.7 227 845.3 239 818 246C790.7 253 763.3 255 736.2 252C709 249 682 241 654.8 244C627.7 247 600.3 261 573 253C545.7 245 518.3 215 491 213C463.7 211 436.3 237 409 249C381.7 261 354.3 259 327 235C299.7 211 272.3 165 245.2 164C218 163 191 207 163.8 219C136.7 231 109.3 211 82 197C54.7 183 27.3 175 13.7 171L0 167Z" fill="#5b4758"></path><path d="M0 379L13.7 386C27.3 393 54.7 407 82 416C109.3 425 136.7 429 163.8 432C191 435 218 437 245.2 438C272.3 439 299.7 439 327 445C354.3 451 381.7 463 409 467C436.3 471 463.7 467 491 461C518.3 455 545.7 447 573 451C600.3 455 627.7 471 654.8 470C682 469 709 451 736.2 446C763.3 441 790.7 449 818 439C845.3 429 872.7 401 886.3 387L900 373L900 317L886.3 327C872.7 337 845.3 357 818 363C790.7 369 763.3 361 736.2 357C709 353 682 353 654.8 356C627.7 359 600.3 365 573 363C545.7 361 518.3 351 491 358C463.7 365 436.3 389 409 398C381.7 407 354.3 401 327 388C299.7 375 272.3 355 245.2 348C218 341 191 347 163.8 349C136.7 351 109.3 349 82 342C54.7 335 27.3 323 13.7 317L0 311Z" fill="#a37178"></path><path d="M0 535L13.7 538C27.3 541 54.7 547 82 543C109.3 539 136.7 525 163.8 525C191 525 218 539 245.2 541C272.3 543 299.7 533 327 533C354.3 533 381.7 543 409 545C436.3 547 463.7 541 491 542C518.3 543 545.7 551 573 555C600.3 559 627.7 559 654.8 550C682 541 709 523 736.2 519C763.3 515 790.7 525 818 529C845.3 533 872.7 531 886.3 530L900 529L900 371L886.3 385C872.7 399 845.3 427 818 437C790.7 447 763.3 439 736.2 444C709 449 682 467 654.8 468C627.7 469 600.3 453 573 449C545.7 445 518.3 453 491 459C463.7 465 436.3 469 409 465C381.7 461 354.3 449 327 443C299.7 437 272.3 437 245.2 436C218 435 191 433 163.8 430C136.7 427 109.3 423 82 414C54.7 405 27.3 391 13.7 384L0 377Z" fill="#dfa78b"></path><path d="M0 601L13.7 601C27.3 601 54.7 601 82 601C109.3 601 136.7 601 163.8 601C191 601 218 601 245.2 601C272.3 601 299.7 601 327 601C354.3 601 381.7 601 409 601C436.3 601 463.7 601 491 601C518.3 601 545.7 601 573 601C600.3 601 627.7 601 654.8 601C682 601 709 601 736.2 601C763.3 601 790.7 601 818 601C845.3 601 872.7 601 886.3 601L900 601L900 527L886.3 528C872.7 529 845.3 531 818 527C790.7 523 763.3 513 736.2 517C709 521 682 539 654.8 548C627.7 557 600.3 557 573 553C545.7 549 518.3 541 491 540C463.7 539 436.3 545 409 543C381.7 541 354.3 531 327 531C299.7 531 272.3 541 245.2 539C218 537 191 523 163.8 523C136.7 523 109.3 537 82 541C54.7 545 27.3 539 13.7 536L0 533Z" fill="#ffeba7"></path></svg>